<?xml version="1.0" encoding="utf-8"?>
<!-- Generator: Adobe Illustrator 16.0.0, SVG Export Plug-In . SVG Version: 6.00 Build 0)  -->
<!DOCTYPE svg PUBLIC "-//W3C//DTD SVG 1.1//EN" "http://www.w3.org/Graphics/SVG/1.1/DTD/svg11.dtd">
<svg version="1.1" id="Layer_1" xmlns="http://www.w3.org/2000/svg" xmlns:xlink="http://www.w3.org/1999/xlink" x="0px" y="0px"
	 width="31.969px" height="8px" viewBox="0 0 31.969 8" enable-background="new 0 0 31.969 8" xml:space="preserve">
<path fill-rule="evenodd" clip-rule="evenodd" d="M2.744,7.923C2.474,7.767,2.493,7.641,2.382,7.399
	C1.583,7.218,1.074,6.724,0.633,6.117C0.406,5.802,0.068,5.256,0.031,4.952C-0.304,2.101,2.12,0.007,4.673,0
	c2.189-0.007,3.465,1.902,3.315,3.903c-0.137,1.833-1.424,3.85-3.375,4.079C4.017,8.052,3.474,7.892,2.744,7.923z M6.484,3.609
	C6.219,2.484,6.208,1.956,4.547,1.75C4.281,1.717,4.176,1.815,3.781,1.766C3.125,1.781,3.171,1.892,2.75,2.094
	C1.936,2.485,2.097,2.694,1.828,3.562C1.337,5.142,1.813,5.215,2.5,6.047c0.493,0.456,0.49,0.275,1.203,0.516
	C4.14,6.594,4.646,6.556,4.938,6.469C5.828,6.203,6.094,5.703,6.5,5.016C6.55,4.694,6.705,4.542,6.484,3.609z"/>
<path fill-rule="evenodd" clip-rule="evenodd" d="M12.077,2.744c0.155-0.271,0.282-0.251,0.524-0.362
	c0.181-0.799,0.675-1.308,1.281-1.749c0.314-0.227,0.861-0.564,1.166-0.602C17.899-0.304,19.992,2.12,20,4.673
	c0.007,2.189-1.902,3.465-3.902,3.315c-1.834-0.137-3.85-1.424-4.08-3.375C11.948,4.017,12.107,3.474,12.077,2.744z M16.391,6.484
	c1.125-0.266,1.653-0.276,1.859-1.938c0.033-0.266-0.065-0.371-0.016-0.766c-0.016-0.656-0.127-0.61-0.328-1.031
	c-0.391-0.814-0.601-0.653-1.469-0.922c-1.579-0.491-1.652-0.015-2.484,0.672c-0.455,0.493-0.275,0.49-0.516,1.203
	c-0.031,0.437,0.007,0.943,0.094,1.234c0.266,0.891,0.766,1.156,1.453,1.562C15.307,6.55,15.457,6.705,16.391,6.484z"/>
<path fill-rule="evenodd" clip-rule="evenodd" d="M29.256,0.077c0.271,0.156,0.251,0.282,0.362,0.524
	c0.799,0.181,1.308,0.675,1.749,1.282c0.227,0.315,0.564,0.861,0.602,1.166C32.304,5.899,29.88,7.993,27.327,8
	c-2.189,0.007-3.465-1.902-3.315-3.903c0.137-1.833,1.424-3.85,3.375-4.079C27.983-0.052,28.526,0.108,29.256,0.077z M25.516,4.391
	c0.266,1.125,0.276,1.653,1.938,1.859c0.266,0.033,0.371-0.065,0.766-0.016c0.656-0.016,0.61-0.126,1.031-0.328
	c0.814-0.391,0.653-0.601,0.922-1.469c0.491-1.579,0.015-1.652-0.672-2.484c-0.493-0.456-0.49-0.275-1.203-0.516
	c-0.437-0.031-0.943,0.007-1.234,0.094c-0.891,0.266-1.156,0.766-1.562,1.453C25.45,3.306,25.295,3.458,25.516,4.391z"/>
</svg>
