<?xml version="1.0" encoding="utf-8"?>
<!-- Generator: Adobe Illustrator 16.0.0, SVG Export Plug-In . SVG Version: 6.00 Build 0)  -->
<!DOCTYPE svg PUBLIC "-//W3C//DTD SVG 1.1//EN" "http://www.w3.org/Graphics/SVG/1.1/DTD/svg11.dtd">
<svg version="1.1" id="Layer_1" xmlns="http://www.w3.org/2000/svg" xmlns:xlink="http://www.w3.org/1999/xlink" x="0px" y="0px"
	 width="132.301px" height="97.944px" viewBox="0 0 132.301 97.944" enable-background="new 0 0 132.301 97.944"
	 xml:space="preserve">
<g>
	<path d="M25.359,53.621c-1.75,5.659-12.819,7.521-20.865,6.953C2.931,60.456,0.07,61.244,0,58.932
		c2.319-2.013,6.017-1.039,9.401-1.225c5.806-0.321,11.467-1.125,13.91-4.501c0.486-1.488,0.348-2.802,0.051-4.071l1.802-0.262
		C25.529,50.48,25.841,52.063,25.359,53.621z"/>
	<path d="M122.297,8.625c8.116,8.486,13.793,26.383,6.945,39.674c-3.392,6.609-13.255,12.868-16.769,18.411
		c-1.768,2.793-2.488,7.109-3.679,8.992c-1.59,2.531-5.316,5.477-7.768,7.777c-5.516,5.152-10.883,8.986-19.226,11.854
		c-6.604,2.285-12.824,3.352-20.862,2.049c-6.854-1.108-11.989-3.292-16.77-5.721c-8.786-4.482-14.944-15.087-20.036-23.727
		c-2.938,0.173-6.717,1.914-10.231,2.041c-2.512,0.093-5.236-1.083-7.768-1.633c-2.088-0.445-6.369,0.016-5.723-2.859
		c1.089-2.014,3.145-0.059,4.904,0.408c1.691,0.446,4.19,1.057,6.133,1.226c5.416,0.474,10.214-1.879,14.317-1.634
		c1.854,1.919,2.911,5.559,4.905,8.586c7.509,11.33,16.55,19.538,34.361,21.264c13.056,1.277,26.898-6.346,34.354-13.081
		c2.619-2.37,5.945-5.524,7.367-8.183c0.795-1.496,0.965-3.35,1.634-4.902c3.8-8.847,13.268-12.576,17.999-20.868
		c2.503-4.384,4.518-11.946,3.271-18.404c-2.139-11.098-8.214-21.862-18.405-24.952c-5.396-1.633-14.033-2.867-22.086-2.046
		c-4.011,0.414-8.454,2.115-12.685,3.691C65.304,10.74,53.857,17.466,44.17,22.941c-2.969,1.684-5.629,4.5-8.997,5.726
		c-1.885,2.193-4.176,4.165-6.135,6.958c-1.638,2.344-4.219,5.422-4.501,8.585c-0.141,1.592,0.271,3.139,0.627,4.663l-1.802,0.262
		c-0.381-1.641-1.015-3.19-0.869-4.925c0.411-4.762,3.998-8.114,5.727-12.27c2.523-0.786,3.741-3.365,5.73-4.905
		c6.134-4.773,13.933-8.317,21.271-12.682C64.88,8.597,75.425,3.21,86.303,0.858c7.134-1.551,15.979-0.831,22.492,0.82
		C113.939,2.974,118.87,5.047,122.297,8.625z"/>
</g>
</svg>
