<?xml version="1.0" encoding="utf-8"?>
<!-- Generator: Adobe Illustrator 16.0.0, SVG Export Plug-In . SVG Version: 6.00 Build 0)  -->
<!DOCTYPE svg PUBLIC "-//W3C//DTD SVG 1.1//EN" "http://www.w3.org/Graphics/SVG/1.1/DTD/svg11.dtd">
<svg version="1.1" id="Layer_1" xmlns="http://www.w3.org/2000/svg" xmlns:xlink="http://www.w3.org/1999/xlink" x="0px" y="0px"
	 width="144.951px" height="75.167px" viewBox="0 0 144.951 75.167" enable-background="new 0 0 144.951 75.167"
	 xml:space="preserve">
<g>
	<path d="M112.214,60.381c-0.847,3.462-2.232,5.935-4.011,7.693l-1.727-1.534c0.085-0.094,0.176-0.18,0.265-0.286
		c3.532-3.992,1.668-9.533,4.626-11.409c3.822,1.457,3.826,6.105,6.56,8.677c3.8,3.585,10.035,6.425,12.986,7.317
		c3.511,1.059,6.857,0.707,9.618,1.331c0.969,0.213,1.858,0.537,2.674,1.089c-1.422,2.667-7.186,2.061-11.211,1.044
		C123.033,72.049,114.033,66.235,112.214,60.381z"/>
	<path d="M45.19,3.078c-6.588,0.774-12.043,0.768-18.795,3.338c-2.283,0.868-4.478,1.783-6.637,2.906L18.56,7.046
		c3.912-2.027,7.971-3.582,11.651-4.807c3.395-1.135,6.388-1.315,11.071-1.695c6.757-0.536,13.176-0.697,20.762-0.39
		c4.457,0.173,8.504,1.043,12.393,1.388c2.334,0.206,4.627-0.603,6.959-0.475c1.809,0.091,3.895,0.885,5.949,1.08
		c1.865,0.181,3.698-0.157,5.424,0.194c4.643,0.911,12.137,4.084,16.201,6.614c7.787,4.874,8.937,10.285,10.407,17.279
		c0.802,3.786,1.833,8.193,2.081,11.322c0.299,3.505-1.277,6.678-0.118,10.447c1.227,4.027,4.967,9.51,8.806,12.914
		c4.445,3.948,10.032,5.073,14.806,7.935c-1.351,1.602-3.496,1.586-5.811,0.844c-2.786-0.902-5.82-2.834-8.035-4.281
		c-10.742-6.963-15.147-17.817-12.601-27.559c-1.282-4.866-1.543-9.874-2.906-15.182c-0.349-1.338-0.72-3.678-1.355-4.753
		c-2.613-4.49-11.379-9.689-18.34-11.887C89.685,4.068,79.442,4.751,72.28,4.016C63.483,3.117,54.174,2.023,45.19,3.078z"/>
	<path d="M33.809,71.065C21.724,67.577,8.576,58.55,3.589,47.594c-0.78-1.712-0.605-3.822-1.234-5.79
		c-0.646-2.022-1.889-3.597-2.139-5.26c-0.752-5.131,0.326-13.291,5.557-19.678c3.41-4.165,7.986-7.352,12.787-9.82l1.199,2.275
		c-3.595,1.878-7.047,4.337-10.499,8.143C0.586,27.03,3.927,36.142,6.136,45.367c3.608,5.766,8.352,12.395,13.876,16.194
		c13.062,8.978,30.193,10.628,43.327,9.25c2.536-0.266,4.389-0.511,6.826-1.121c6.271-1.577,11-1.639,18.941-1.021
		c1.973,0.16,3.863,0.042,6.066,0.06c3.687,0.015,8.436,0.688,11.304-2.189l1.727,1.534c-7.286,7.208-21.149,2.178-31.065,2.811
		c-6.484,0.427-11.583,2.842-18.141,3.198c-4.391,0.25-9.37,0.587-13.041-1.243C41.378,73.669,37.622,72.165,33.809,71.065z"/>
</g>
</svg>
