<?xml version="1.0" encoding="utf-8"?>
<!-- Generator: Adobe Illustrator 16.0.0, SVG Export Plug-In . SVG Version: 6.00 Build 0)  -->
<!DOCTYPE svg PUBLIC "-//W3C//DTD SVG 1.1//EN" "http://www.w3.org/Graphics/SVG/1.1/DTD/svg11.dtd">
<svg version="1.1" id="Layer_1" xmlns="http://www.w3.org/2000/svg" xmlns:xlink="http://www.w3.org/1999/xlink" x="0px" y="0px"
	 width="199.999px" height="32px" viewBox="0 0 199.999 32" enable-background="new 0 0 199.999 32" xml:space="preserve">
<g>
	<path fill="#008ab2" d="M198.304,28.736c0.746-8.194-0.287-16.969,0.389-26.271c0.057-0.717,0.137-0.477,0.186-1.29l0.99,0.062
		c-0.59,9.669,0.287,18.959-0.336,28.982l-0.996-0.067c-10.619,0.543-22.738,1.248-35.109,1.186
		c-6.459-0.035-153.674,1.095-160.676,0.476c-0.873-0.081-2.328,0.149-2.75-0.952c0.045-1.267,1.711-0.682,2.295-0.709
		c3.262-0.144,33.529,0.246,36.703,0.24c3.002-0.006,118.691-0.688,121.676-0.711C173.456,29.573,186.099,29.711,198.304,28.736z"/>
	<path fill="#008ab2" d="M1.882,2.381C0.187,10.882,2.171,20.37,1.493,29.672c-0.055,0.716-0.268,0.631-0.316,1.445l-0.99-0.062
		c0.592-9.668-1.027-20.131,0.469-30.158l0.994,0.067c10.621-0.543,22.887-0.891,35.258-0.828
		c6.459,0.035,153.34-0.433,160.342,0.187c0.873,0.08,2.326-0.149,2.75,0.952c-0.045,1.267-1.711,0.682-2.295,0.709
		c-3.262,0.144-33.531-0.245-36.703-0.24C157.999,1.75,42.522,1.782,39.538,1.805C26.757,1.915,14.087,1.406,1.882,2.381z"/>
</g>
</svg>
