<?xml version="1.0" encoding="utf-8"?>
<!-- Generator: Adobe Illustrator 16.0.0, SVG Export Plug-In . SVG Version: 6.00 Build 0)  -->
<!DOCTYPE svg PUBLIC "-//W3C//DTD SVG 1.1//EN" "http://www.w3.org/Graphics/SVG/1.1/DTD/svg11.dtd">
<svg version="1.1" id="Layer_1" xmlns="http://www.w3.org/2000/svg" xmlns:xlink="http://www.w3.org/1999/xlink" x="0px" y="0px"
	 width="81.036px" height="404.25px" viewBox="0 0 81.036 404.25" enable-background="new 0 0 81.036 404.25" xml:space="preserve">
<g id="XMLID_33_">
	<path fill="#F15A24" d="M30.625,199.539c8.544,1.231,16.878,0.196,23.826-2.349c6.32,13.703,4.782,35.278,5.369,54.699
		c-10.165,5.719-22.748,7.159-33.893,1.677C25.831,234.047,26.767,216.835,30.625,199.539z"/>
	<path fill="#C2002E" d="M55.892,193.835c-6.656,2.865-19.184,5.704-26.272,2.683c1.733-11.884,3.565-27.418,4.027-40.603
		c6.25-0.518,12.192-0.867,18.135-1.372C51.558,167.464,53.165,181.825,55.892,193.835z"/>
	<path fill="#C2002E" d="M24.586,154.237c-0.183,0.28-0.351,0.546-0.337,1.007c-2.391-0.629-5.872-0.167-8.053-1.007
		c1.594-18.862,6.78-34.145,21.812-39.597c4.811,4.712,12.836-2.391,17.786,2.685c2.712,2.797,4.543,8.543,5.704,13.088
		c1.58,6.194,2.53,13.479,3.355,20.134c-2.054,0.867-4.306,1.51-7.048,1.677c-2.612-2.867-0.837-10.124-4.025-12.416
		c-1.748,1.454,1.258,5.299,0.671,8.725c-0.251,1.427-1.104,2.056-1.678,3.356c-6.669,0.741-16.415,3.188-22.148,0.67
		c-1.915-3.173-0.406-9.2-0.67-12.416c-2.461,1.007-1.65,4.655-2.349,7.047C26.823,149.804,25.047,151.917,24.586,154.237z"/>
	<path d="M51.431,45.848c-1.552-0.574-3.859-0.392-5.033-1.343c0.447-1.776,3.832-1.454,5.033-0.671
		C51.431,44.504,51.431,45.176,51.431,45.848z"/>
	<path d="M49.417,52.222c3.343-0.027,2.56,9.998-1.677,6.042C47.655,55.51,46.929,52.25,49.417,52.222z"/>
	<path d="M45.391,80.747c1.579,2.936-5.929,5.509-5.705,1.342C42.553,82.62,43.308,81.027,45.391,80.747z"/>
	<path d="M44.385,69.672c-0.308-0.251-0.756-0.362-1.343-0.334c-0.196-1.426,0.111-2.349,1.678-2.014
		C44.706,68.219,44.846,69.239,44.385,69.672z"/>
	<path d="M41.699,67.659c0.378,1.063,0.028,0.77,0,2.013C39.882,69.743,39.547,67.408,41.699,67.659z"/>
	<path d="M35.658,44.504c0.448,0.56,0.881,1.132,0.672,2.349c-1.985-0.377-3.858,1.189-4.026-1.006
		C33.282,45.273,34.331,44.743,35.658,44.504z"/>
	<path d="M34.652,52.558c1.497-0.979,2.629,0.825,3.355,1.679c-0.349,2.236-0.433,4.712-1.678,6.04
		C33.38,59.578,33.407,54.74,34.652,52.558z"/>
	<path d="M67.875,241.15c-3.328,2.811-4.153,11.004-2.686,16.443c2.671-0.685,0.854-5.858,3.691-6.376
		c3.3,3.188,1.231,9.55,2.015,14.766c0.418,0.027,0.459,0.433,1.006,0.335c1.509-2.867,2.699-6.949,2.349-10.738
		c-0.14-1.496-1.468-2.88-0.336-4.026c3.427-0.015,0.252,6.389,2.349,8.39c2.713-2.91-1.328-9.816,2.014-11.075
		c-0.027,1.146-0.111,2.349,0.671,2.686c-0.53-3.482,0.141-5.453-2.012-7.72c-1.609-1.677-5.537-1.718-6.712-3.689
		c-1.637-2.713-1.245-10.32-1.678-15.772c-0.309-3.803-0.755-8.139-1.008-11.411c-0.657-8.109-0.671-17.645-1.006-27.181
		c-0.419-12.039-1.775-23.727-3.355-32.887c-0.309,0.588-1.049,0.742-2.014,0.671c-0.503,0.951-0.209,2.699-1.008,3.356
		c0.728,0.223,1.063-0.95,1.008,0.335C64.924,185.725,65.007,214.178,67.875,241.15z M56.466,255.915
		c-2.21-0.027-5.483,1.651-8.391,2.014c-1.048,13.129-0.224,28.873,0.67,44.966c1.428,25.853,0.421,49.315,2.015,72.148
		c0.28,4.11,0.267,14.052,5.034,11.075c3.607-13.717,1.566-29.167,1.342-44.632C56.702,312.125,56.466,280.902,56.466,255.915z
		 M50.088,387.795c-2.697,7.971-0.403,12.794,7.384,12.752c5.243-0.027,12.85-0.923,14.43-2.685
		c6.781-7.578-7.438-13.367-13.087-15.101c0.489,4.069-1.553,5.622-4.363,6.375C53.206,388.606,51.026,387.557,50.088,387.795z
		 M45.391,98.532c-1.538,0.14-3.299,0.699-4.697,0c-0.797,4.181-0.615,7.537-1.343,11.41c1.062,1.566,3.957,2.14,6.377,1.342
		C44.985,106.949,45.937,101.58,45.391,98.532z M46.397,113.297c-1.832-0.35-5.845,0.531-7.382-1.007
		C38.344,115.157,44.985,115.897,46.397,113.297z M51.781,154.544c-5.942,0.504-11.885,0.854-18.135,1.372
		c-0.462,13.185-2.294,28.719-4.027,40.603c7.089,3.021,19.616,0.182,26.272-2.683C53.165,181.825,51.558,167.464,51.781,154.544z
		 M34.988,383.097c0.489,1.623,3.02,1.497,4.697,1.007c1.762-2.391,0.741-5.873,0.672-8.726c-0.476-18.861-0.042-38.66-0.336-58.388
		c-0.308-19.437-1.468-38.773,0-57.047c-2.111-1.134-5.202-1.54-8.39-2.35c-0.056,27.14,1.021,51.859,1.007,76.176
		c-0.013,11.758,1.482,23.447,1.343,34.899C33.926,373.114,33.269,379.657,34.988,383.097z M38.679,28.733
		c-1.537-0.964-0.476-4.097-2.012-5.705c-0.128,2.334-1.147,4.432-1.343,5.705c-1.791-0.112-2.937,0.419-4.363,0.671
		c0.573,12.235,1.049,24.372,2.015,37.584c0.614,8.5,0.866,23.896,6.71,28.524c7.412,5.887,11.2-7.873,12.417-14.094
		c0.854-4.447,1.202-9.843,1.678-13.423c1.873-14.094,0.224-24.637,1.008-39.598c-1.693-0.838-3.344,0.196-5.034,0.336
		c-0.672-1.007-0.364-2.992-1.343-3.69c-0.713,0.978-0.853,2.517-2.014,3.019C43.839,28.117,41.811,28.564,38.679,28.733z
		 M25.928,253.566c11.145,5.482,23.728,4.042,33.893-1.677c-0.587-19.421,0.951-40.996-5.369-54.699
		c-6.948,2.545-15.282,3.58-23.826,2.349C26.767,216.835,25.831,234.047,25.928,253.566z M19.217,129.741
		c4.404-7.789,10.094-13.521,18.12-17.451c0.406-5.676,3.818-14.681-1.007-17.785c-7.578-18.064-5.536-44.365-6.711-66.443
		c2.362-0.686,4.055-0.853,5.369-2.013c1.161-2.224,0.028-6.014,1.679-7.047c2.193,1.272,1.732,5.201,2.684,7.718
		c2.544,0.097,3.873-1.048,6.711-0.67c1.803-1.217,1.245-4.782,3.021-6.042c1.427,1.147,1.104,4.042,1.678,6.042
		c1.328,0.53,4.559-0.77,5.369,1.006c0.337,15.073-0.294,30.957-2.013,45.638c-0.56,4.726-0.587,9.606-1.678,13.758
		c-1.092,4.111-4.446,8.011-5.369,11.41c-1.301,4.796,0.222,10.907,1.006,15.101c11.913-0.602,13.324,12.178,15.772,22.147
		c2.334,0.098,4.139-0.336,5.705-1.006c-3.972-20.177-5.971-42.269-7.719-63.76c-0.588-7.2-1.398-14.345-1.679-21.476
		c-0.308-7.745-0.39-15.171-0.963-22.063c-0.505-6.069-1.356-11.731-3.063-16.863c-2.125-1.916-2.937-5.439-6.041-7.047
		c-3.522-1.817-10.584-1.888-14.43,0c-3.383,1.664-3.577,5.579-6.375,7.719c-1.146,5.439-2.446,11.003-3.594,16.681
		c-0.839,4.223-1.594,8.515-2.111,12.849c-1.635,13.689-1.272,27.867-4.026,41.947c-0.267,1.342-1.118,2.656-1.343,4.027
		c-1.006,6.11-0.756,12.248-3.021,18.121c1.314,0.965,2.853-2.181,4.699-0.67c-1.062,10.682-3.984,21.392-4.362,29.865
		C18.307,134.327,18.418,131.152,19.217,129.741z M27.606,147.19c0.698-2.392-0.112-6.041,2.349-7.047
		c0.264,3.216-1.245,9.243,0.67,12.416c5.733,2.518,15.479,0.07,22.148-0.67c0.574-1.3,1.427-1.929,1.678-3.356
		c0.587-3.425-2.419-7.271-0.671-8.725c3.188,2.292,1.413,9.549,4.025,12.416c2.742-0.167,4.994-0.81,7.048-1.677
		c-0.825-6.655-1.775-13.94-3.355-20.134c-1.161-4.544-2.992-10.291-5.704-13.088c-4.95-5.076-12.976,2.027-17.786-2.685
		c-15.031,5.453-20.218,20.735-21.812,39.597c2.181,0.84,5.662,0.378,8.053,1.007c-0.014-0.461,0.154-0.728,0.337-1.007
		C25.047,151.917,26.823,149.804,27.606,147.19z M31.632,382.762c-3.258,2.251-7.466,5.119-10.402,8.055
		c-1.385,1.384-3.692,4.055-3.692,6.039c-0.027,5.327,6.866,5.565,11.075,5.37c4.153-0.182,11.241-0.504,13.424-2.35
		c3.088-2.601,3.061-11.955-0.672-15.1C38.959,388.075,32.499,385.964,31.632,382.762z M2.102,245.514
		c1.259-2.448,3.942-3.231,5.369-5.706c1.79-20.217,1.79-40.408,4.027-59.396c0.964-8.249,4.867-16.149,6.039-23.826
		c-2.012-1.384-1.873,1.874-3.69,0.671c1.161-6.809,1.86-14.248,3.69-21.141c-1.089-1.552-3.719,0.406-4.697-1.342
		c2.126-8.571,4.056-18.177,5.034-28.859c-1.104-0.643-3.621,1.44-4.697,0c2.865-8.529,3.047-18.191,4.697-27.852
		c0.351-2.07,1.356-3.957,1.678-6.041c1.565-10.473,1.707-21.967,2.686-32.215c0.361-3.79,1.397-7.104,2.012-10.738
		c1.623-9.578,2.28-19.071,8.055-25.839c4.782-3.58,13.424-4.53,18.793-1.679c9.352,4.979,9.759,24.498,10.401,38.591
		c1.511,33.39,4.894,67.129,10.067,94.631c-1.16,2.084-4.727,1.763-7.048,2.685c0.63,4.74,1.721,9.019,2.686,13.423
		c-0.098,1.258-1.789,0.908-2.014,2.012c5.257,26.595,1.524,60.194,7.383,86.579c5.508,2.11,9.032,6.795,8.389,13.421
		c-0.153,1.525-2.544,6.978-3.69,8.726c-0.546,0.839-1.789,0.923-2.35,1.677c-1.454,1.944-1.244,4.978-3.355,5.369
		c-5.076-1.65-1.58-8.613-2.685-13.422c-0.783,1.58-2.084,4.405-3.691,4.027c-2.49-1.356-2.992-5.089-2.587-8.88
		c0.406-3.719,1.706-7.508,2.922-9.242c-1.663-30.145-3.327-59.801-6.375-86.578c-1.931-0.532-3.915-1.007-3.691-3.691
		c-3.72,4.068-2.027,11.912-1.342,18.791c0.672,6.936,0.811,14.387,2.35,19.464c0.852,2.838,3.284,5.522-0.337,7.382
		c5.481,10.026,5.09,31.447,5.705,44.968c0.112,2.628,0.518,6.124,0.153,8.85c-0.336,2.517-1.341,4.363-3.845,4.237
		c-0.881,16.206,0.446,34.019-0.337,51.342c-1.174,25.728,3.889,50.531,1.009,75.168c7.046,2.153,21.895,7.495,14.43,17.786
		c-3.691,5.076-20.723,4.753-24.162,1.342c-0.854-0.837-1.832-3.02-2.013-4.363c-0.113-0.811-0.084-1.593,0.028-2.349
		c0.433-3.005,2.223-5.746,2.656-8.389c0.349-2.153-0.489-4.655-0.672-7.382c-0.951-13.745-0.321-31.936-1.007-47.651
		c-1.188-26.775-1.942-48.629-2.014-71.477c-1.789,0.223-2.559,0.083-4.362,0.671c-1.356,21.476-0.21,46.714-0.335,65.101
		c-0.111,15.898,0.21,31.851,1.006,49.33c0.112,2.557-0.601,5.759,0,8.389c0.35,1.58,1.986,2.475,2.686,4.362
		c0.853,2.349,1.02,4.684,0.74,6.949c-0.362,2.881-1.439,5.635-2.754,8.152c-7.326,2.67-12.528,2.447-21.812,2.685
		c-8.6-4.11-5.145-11.829,1.008-16.778c3.662-2.937,5.886-5.23,10.066-6.712c-0.672-43.22-2.224-81.349-2.349-122.819
		c-1.553-1.917-4.923-2.014-6.377-4.027c1.398-19.016,0.755-37.696,5.705-54.699c0.127-1.58-2.183-0.726-2.349-2.013
		c2.292-8.375,4.236-23.602,5.032-34.228c0.128-1.775,0.337-4.95,0-6.376c-0.614-2.573-4.11-3.398-3.354-6.04
		c-3.202,1.286-2.167,6.794-5.369,8.052c-2.602,14.082-6.53,27.602-7.383,41.946c-0.769,12.836-1.412,25.281-2.35,37.92
		c0.419,1.623,2.477,1.525,3.692,3.357c3.397,5.159,3.006,20.133-2.35,18.792c-1.062,3.468-1.076,9.341-4.362,9.731
		c-1.245,0.154-5.411-3.439-6.375-4.698c-0.491-0.628-1.036-2.307-1.678-3.356c-0.687-1.104-1.791-2.223-2.015-3.019
		C-0.75,255.245,0.746,248.141,2.102,245.514z M6.465,264.976c0.434-4.138-0.965-10.123,1.677-12.081
		c1.987,1.498,0.044,4.895,0,7.719c-0.055,2.965,0.533,6.167,2.015,7.719c0.223,0,0.446,0,0.671,0
		c0.027-0.517-0.043-1.161,0.671-1.007c0.126-2.293,1.132-5.342,1.342-8.389c0.127-2.028-1.16-5.887,1.679-6.042
		c1.469,0.993-0.378,5.301,2.013,5.37c1.721-5.593,0.854-11.171-1.343-15.772c-5.13-3.062-3.159-11.423-2.684-18.792
		c0.53-8.264,1.607-16.863,2.014-25.168c0.811-16.89,6.137-28.817,7.382-41.611c-3.804-0.587-4.054,3.915-4.697,6.376
		c-1.441,5.496-2.964,11.032-3.692,16.107c-1.44,10.011-1.397,21.463-2.349,31.879c-0.922,10.138-1.691,19.226-1.678,29.195
		c-4.586,3.538-8.962,10.655-6.711,18.793c0.363-2.084-0.321-5.23,2.013-5.37C5.723,256.14,3.653,262.921,6.465,264.976z"/>
</g>
</svg>
