<?xml version="1.0" encoding="utf-8"?>
<!-- Generator: Adobe Illustrator 16.0.0, SVG Export Plug-In . SVG Version: 6.00 Build 0)  -->
<!DOCTYPE svg PUBLIC "-//W3C//DTD SVG 1.1//EN" "http://www.w3.org/Graphics/SVG/1.1/DTD/svg11.dtd">
<svg version="1.1" id="Layer_1" xmlns="http://www.w3.org/2000/svg" xmlns:xlink="http://www.w3.org/1999/xlink" x="0px" y="0px"
	 width="38.001px" height="40px" viewBox="0 0 38.001 40" enable-background="new 0 0 38.001 40" xml:space="preserve">
<path fill-rule="evenodd" clip-rule="evenodd" d="M13.033,39.617c-1.281-0.78-1.188-1.41-1.718-2.621
	c-3.795-0.904-6.213-3.373-8.303-6.409c-1.083-1.573-2.693-4.306-2.863-5.824C-1.45,10.506,10.066,0.037,22.195,0
	c10.406-0.034,16.46,9.513,15.749,19.518c-0.651,9.164-6.76,19.246-16.033,20.393C19.081,40.26,16.503,39.463,13.033,39.617z
	 M36.228,18.062c0.222-9.183-6.419-15.867-14.316-16.897c-1.258-0.165-2.816,1.304-4.297,0.584
	c-1.398,1.729-3.725,1.611-5.726,2.619c-3.871,1.956-8.458,7.604-9.735,11.947c-2.32,7.894,1.611,12.734,4.867,16.895
	c2.342,2.279,6.797,2.408,9.449,4.37c0.961-0.87,1.996,0.242,3.436,0.291c4.379,0.156,11.953-3.333,12.025-8.739
	C34.826,26.961,36.108,22.851,36.228,18.062z"/>
</svg>
