<?xml version="1.0" encoding="utf-8"?>
<!-- Generator: Adobe Illustrator 16.0.0, SVG Export Plug-In . SVG Version: 6.00 Build 0)  -->
<!DOCTYPE svg PUBLIC "-//W3C//DTD SVG 1.1//EN" "http://www.w3.org/Graphics/SVG/1.1/DTD/svg11.dtd">
<svg version="1.1" id="Layer_1" xmlns="http://www.w3.org/2000/svg" xmlns:xlink="http://www.w3.org/1999/xlink" x="0px" y="0px"
	 width="60px" height="32px" viewBox="0 0 60 32" enable-background="new 0 0 60 32" xml:space="preserve">
<path fill="#FA8F69" d="M42.449,23.61c-0.031-0.502-0.025-1.055,0.006-1.634c-0.953,5.82-1.189,6.919-1.415,7.306
	c-0.196,0.336-0.581,0.525-0.972,0.469c-0.392-0.053-0.711-0.332-0.81-0.709c-0.248-0.949-0.075-3.857,0.324-8.09
	c-0.153,0.417-0.326,0.738-0.54,0.955c-0.251,0.255-0.625,0.351-0.971,0.251c-0.287-0.083-0.517-0.292-0.627-0.559
	c-0.23,1.204-0.432,2.235-0.654,2.846c-0.159,0.436-0.614,0.694-1.077,0.618c-0.464-0.077-0.805-0.471-0.808-0.935
	c-0.008-1.499,0.188-4.534,0.436-7.86c-0.239,0.812-0.459,1.644-0.655,2.487c-0.45,1.798-0.818,3.667-1.173,5.474
	c-0.153,0.781-0.308,1.563-0.468,2.344C32.947,27.05,32.5,27.376,32,27.333c-0.496-0.05-0.874-0.457-0.876-0.947l-0.003-0.901
	c-0.01-3.434-0.018-6.052,0.055-8.532c-0.194,0.585-0.417,1.29-0.684,2.209c-0.469,1.608-1.047,2.662-2.328,2.573
	c-0.07,0.204-0.174,0.587-0.287,1.268c-0.15,0.898-0.275,1.851-0.408,2.858c-0.23,1.751-0.468,3.562-0.859,5.176
	c-0.116,0.478-0.584,0.796-1.077,0.723c-0.495-0.065-0.857-0.492-0.837-0.982c0.043-0.993,0.177-2.033,0.306-3.039
	c0.058-0.45,0.114-0.891,0.159-1.309c0.295-2.702,0.489-3.797,0.646-4.678c0.195-1.094,0.336-1.884,0.565-5.242
	c0.108-1.594,0.223-3.306,0.329-5.077c-0.576,1.451-1.075,2.962-1.491,4.529c-0.287,1.048-0.521,2.198-0.748,3.312
	c-0.347,1.71-0.707,3.479-1.279,5.05c-0.162,0.44-0.626,0.702-1.094,0.615c-0.193-0.037-0.363-0.127-0.496-0.254
	c-0.078,1.061-0.16,1.966-0.277,2.603c-0.083,0.448-0.475,0.774-0.938,0.782c-0.462,0.014-1.662-0.304-1.761-0.748
	c-0.215-0.959-1.029-4.191-1.029-7.543v-0.646c0-0.249,0.798-0.496,0.798-0.748c-0.042,0.184,0.317,0.339,0.279,0.469
	c-0.725,2.521-0.729,5.195-0.831,7.479c-0.022,0.496-0.327,0.892-0.832,0.912c-0.498,0.024-0.89-0.345-0.952-0.837
	c-0.152-1.226-0.081-2.752-0.04-4.1c0.018-0.565,0.047-1.104,0.048-1.579c0-0.798,0.01-1.6,0.016-2.4
	c-0.362,1.872-0.56,3.827-0.754,5.728c-0.111,1.067-0.223,2.172-0.362,3.257c-0.009,0.722-0.13,1.39-0.369,1.986
	c-0.155,0.387-0.552,0.623-0.972,0.603c-0.422-0.031-0.776-0.326-0.875-0.73c-0.258-1.056-0.216-2.696-0.184-3.892
	c0.007-0.281,0.014-0.534,0.015-0.739c0.049-2.712,0.077-5.473,0.086-8.22c-0.001-0.615-0.005-1.237-0.013-1.858
	c-1.021,4.139-2.014,8.52-3.033,13.384C9.51,28.327,9.055,28.655,8.555,28.6c-0.498-0.053-0.872-0.47-0.864-0.963
	c0.042-2.691,0.254-5.389,0.484-8.02c-0.187,0.902-0.399,1.79-0.663,2.64c-0.144,0.464-0.623,0.75-1.107,0.658
	c-0.486-0.092-0.826-0.524-0.787-1.011c0.155-1.984,0.13-4.061,0.107-6.069l-0.013-1.114C5.71,14.489,5.71,14.25,5.711,14.004
	C5.682,14.127,5.639,14.3,5.585,14.51c-0.179,0.693-0.317,1.283-0.42,1.766c-0.012,0.684-0.053,1.352-0.137,1.972
	c-0.057,0.419-0.386,0.75-0.809,0.816c-0.403,0.062-0.802-0.129-0.999-0.476c-0.342,1.172-0.69,2.487-0.972,3.903
	c-0.03,0.437-0.124,0.842-0.274,1.206c-0.167,0.397-0.582,0.64-1.018,0.584c-0.435-0.052-0.779-0.384-0.842-0.811
	c-0.192-1.317-0.117-2.875,0.033-4.373c-0.076-0.182-0.096-0.388-0.045-0.592c0.068-0.271,0.137-0.543,0.205-0.816
	c0.039-0.311,0.078-0.614,0.116-0.908c0.055-0.421,0.106-0.824,0.151-1.199c0.085-0.726,0.172-1.446,0.261-2.161
	C1.171,10.7,1.485,8.296,1.617,5.56c0.024-0.503,0.444-0.739,0.958-0.739c0.003,0,0.008,0,0.012,0c0.509,0,0.932,0.218,0.968,0.716
	c0.031,0.436,0,0.823-0.029,1.241L3.508,6.985C3.47,7.619,3.436,8.233,3.401,8.874c-0.033,0.617-0.066,1.234-0.105,1.863
	c0.168-0.16,0.396-0.271,0.647-0.276c0.188-0.008,0.369,0.036,0.521,0.126c0.26-1.08,0.566-2.146,0.975-3.152
	c0.157-0.387,0.555-0.637,0.977-0.596C6.84,6.874,7.192,7.17,7.287,7.577c0.312,1.354,0.372,2.925,0.376,4.428
	c0.346-1.59,0.751-3.326,1.238-5.314c0.114-0.467,0.56-0.78,1.047-0.725c0.484,0.051,0.855,0.448,0.867,0.926
	c0.063,2.711-0.083,5.415-0.29,8.073c0.085-0.353,0.172-0.706,0.258-1.054c0.486-1.969,0.989-4.004,1.862-5.874
	c0.189-0.405,0.642-0.623,1.087-0.534c0.443,0.093,0.763,0.479,0.766,0.926c0.008,1.188,0.027,2.375,0.049,3.561
	c0.023,1.338,0.047,2.717,0.051,4.084c0.377-1.494,0.83-2.971,1.271-4.404l0.236-0.771c0.137-0.45,0.589-0.732,1.06-0.672
	c0.473,0.064,0.829,0.454,0.839,0.925c0.02,0.875,0.029,1.756,0.032,2.635c0.015-0.092,0.03-0.181,0.046-0.273
	c0.586-3.548,0.998-6.526,1.369-7.497c0.141-0.367,0.496-1.194,0.895-1.194c0.004,0,0.01,0,0.014,0c0.395,0,0.749,0.812,0.898,1.169
	c0.301,0.724-0.109,7.294-0.188,8.403c0,0.037,0.002,0.221,0.002,0.259c0.141-0.285,0.298-0.458,0.474-0.655
	c0.261-0.295,0.679-0.367,1.054-0.237c0.375,0.128,0.632,0.49,0.646,0.879c0.015,0.348,0.022,0.704,0.024,1.054
	c0.021-0.076,0.04-0.15,0.062-0.227c0.593-2.222,1.345-4.344,2.23-6.311c0.084-0.211,0.187-0.459,0.291-0.71
	c0.479-1.163,0.976-2.363,1.181-3.672c0.078-0.5,0.538-0.856,1.051-0.805c0.511,0.046,0.896,0.478,0.878,0.98
	c-0.146,4.05-0.415,8.155-0.656,11.687c-0.098,1.436-0.18,2.416-0.258,3.158c0.045,0.004,0.086,0.011,0.124,0.017
	c0.09-0.148,0.251-0.481,0.453-1.175c0.56-1.923,0.946-2.99,1.257-3.847c0.457-1.263,0.788-2.177,1.396-5.069
	c0.082-0.391,0.196-0.848,0.32-1.341c0.155-0.618,0.321-1.28,0.449-1.916c0.067-0.532,0.14-1.082,0.218-1.655
	c0.068-0.504,0.527-0.873,1.044-0.824c0.517,0.043,0.907,0.478,0.888,0.986c-0.021,0.563-0.11,1.176-0.231,1.791
	c-0.529,4.159-0.757,7.099-0.849,10.272c0.441-1.679,0.975-3.309,1.588-4.852c0.158-0.448,0.775-3.817,1.108-5.628
	c0.285-1.559,0.438-2.383,0.497-2.621c0.123-0.477,0.594-0.783,1.089-0.709c0.495,0.073,0.851,0.506,0.821,0.997
	c-0.07,1.194-0.248,3.403-0.453,5.96c-0.124,1.539-0.257,3.19-0.383,4.812c0.219-0.281,0.463-0.485,0.742-0.607
	c0.265-0.112,0.568-0.107,0.826,0.019c0.043,0.021,0.083,0.044,0.121,0.07c0.043-0.22,0.088-0.446,0.133-0.677
	c0.92-4.701,1.424-6.924,1.979-7.663c0.248-0.334,0.685-0.471,1.086-0.341c0.398,0.128,0.667,0.495,0.666,0.908
	c-0.004,0.845-0.287,3.505-0.647,6.875c-0.026,0.252-0.055,0.511-0.083,0.777c0.108-0.225,0.227-0.439,0.355-0.637
	c0.216-0.329,0.613-0.498,1.004-0.42c0.16,0.03,0.305,0.101,0.426,0.195c0.439-1.368,0.967-2.575,1.48-3.755
	c0.452-1.037,0.92-2.109,1.316-3.271c0.155-0.456,0.631-0.726,1.112-0.632c0.108,0.022,0.21,0.061,0.302,0.113
	c0.119-0.685,0.244-1.365,0.376-2.045c0.004-0.023,0.01-0.046,0.016-0.067l0.646-2.379c0.021-0.079,0.052-0.152,0.091-0.224
	c0.069-0.12,0.115-0.257,0.14-0.42c0.078-0.512,0.558-0.873,1.08-0.805c0.522,0.061,0.897,0.524,0.846,1.039
	c-0.245,2.4-0.263,4.949-0.278,7.412c-0.008,1.094-0.015,2.187-0.041,3.26c-0.002,0.041-0.002,0.081-0.004,0.123
	c0.922-3.433,2.076-6.591,3.12-9.298c0.169-0.438,0.635-0.694,1.103-0.597c0.467,0.092,0.795,0.506,0.775,0.973
	c-0.082,1.874-0.202,3.764-0.329,5.621c0.054-0.218,0.108-0.431,0.162-0.645c0.126-0.492,0.62-0.803,1.13-0.701
	c0.507,0.097,0.846,0.567,0.771,1.07c-0.236,1.598-0.41,3.238-0.561,4.875c0.158-0.806,0.302-1.618,0.432-2.435
	c0.014-0.082,0.035-0.243,0.062-0.447c0.109-0.829,0.227-1.68,0.35-2.143c0.127-0.481,0.604-0.785,1.104-0.702
	c0.497,0.084,0.846,0.528,0.803,1.021c-0.082,0.949-0.172,1.898-0.262,2.844c-0.179,1.888-0.363,3.838-0.485,5.779
	c-0.054,0.853-0.138,1.742-0.219,2.603c-0.095,1.007-0.192,2.038-0.244,3.041c0.003,0.032,0.005,0.065,0.005,0.098l0.002,0.223
	c0.004,0.314,0.01,0.672-0.061,1.029c-0.096,0.484-0.553,0.816-1.049,0.769c-0.499-0.049-0.879-0.463-0.875-0.955
	c0.005-0.604,0.032-1.218,0.073-1.833c-0.305,0.933-0.613,1.89-0.882,2.85c-0.137,0.491-0.639,0.788-1.143,0.68
	c-0.039-0.007-0.077-0.018-0.114-0.031c-0.021,0.165-0.041,0.328-0.062,0.489c-0.049,0.572-0.113,1.146-0.2,1.617
	c-0.095,0.508-0.579,0.848-1.099,0.771c-0.519-0.076-0.882-0.543-0.82-1.055c0.062-0.503,0.125-1.014,0.188-1.531
	c0.041-0.479,0.071-0.964,0.099-1.374l0.036-0.568c0.172-2.92,0.331-5.86,0.474-8.728c0.096-1.688,0.213-3.366,0.33-5.045
	c0.01-0.14,0.02-0.279,0.029-0.417c-0.458,1.465-0.887,2.995-1.251,4.569c-0.837,3.607-1.267,7.253-1.722,11.115l-0.154,1.306
	c-0.061,0.503-0.514,0.873-1.028,0.84s-0.914-0.458-0.906-0.967c0.043-2.794,0.153-5.628,0.259-8.37
	c0.059-1.497,0.118-3.029,0.166-4.559c-0.104,0.969-0.196,1.938-0.275,2.91c-0.355,4.082-0.951,8.122-1.773,12.016
	c-0.168,1.08-0.473,2.062-0.904,2.918C45.963,31.799,45.623,32,45.26,32c-0.066,0-0.133-0.007-0.2-0.021
	c-0.433-0.09-0.749-0.454-0.769-0.888c-0.125-2.646,0.192-5.616,0.473-8.236c0.054-0.497,0.105-0.985,0.154-1.46
	c0.223-2.197,0.535-4.395,0.839-6.522c0.044-0.319,0.091-0.64,0.137-0.962c-0.192,0.582-0.365,1.191-0.514,1.846
	c-0.218,0.962-0.823,3.785-0.976,6.125c0.001,0.562-0.002,1.131-0.016,1.692c-0.014,0.513-0.434,0.921-0.953,0.931
	C42.926,24.51,42.482,24.119,42.449,23.61"/>
</svg>
