<?xml version="1.0" encoding="utf-8"?>
<!-- Generator: Adobe Illustrator 16.0.0, SVG Export Plug-In . SVG Version: 6.00 Build 0)  -->
<!DOCTYPE svg PUBLIC "-//W3C//DTD SVG 1.1//EN" "http://www.w3.org/Graphics/SVG/1.1/DTD/svg11.dtd">
<svg version="1.1" id="Layer_1" xmlns="http://www.w3.org/2000/svg" xmlns:xlink="http://www.w3.org/1999/xlink" x="0px" y="0px"
	 width="105.254px" height="405.778px" viewBox="0 0 105.254 405.778" enable-background="new 0 0 105.254 405.778"
	 xml:space="preserve">
<g>
	<g id="XMLID_61_">
		<path fill="#CCCCCC" d="M72.693,248.94c-1.428,41.545,2.774,82.402,1.69,126.296c-0.519,0.233-1.029,0.441-1.531,0.616
			c-3.188,1.101-6.188,0.982-9.722-0.032c-0.964-20.361-1.946-42.563-2.248-64.023c-0.215-15.007-0.456-30.454,0.358-44.912
			c0.057-1.091,0.128-2.173,0.198-3.256c0.232-3.339,0.767-6.995,2.258-9.984c-2.05-1.033-6.777,0.898-9.57-0.591
			c-3.357,38.315,1.062,85.108-1.124,124.532c-3.462,2.748-8.372-0.31-11.243-1.766c0.254-39.99,0.916-83.094,0.023-125.148
			c-0.008-0.384-0.018-0.758-0.023-1.142C51.177,249.84,64.271,251.354,72.693,248.94z"/>
		<path fill="#008AB2" d="M86.762,149.674c1.938,9.877,3.021,18.879,2.807,31.129c-2.368,1.648-6.723,2.291-10.121,1.175
			c-0.438-6.988-0.757-14.091-2.812-19.388c0.65-4.538,0.788-11.517,0.557-17.62c-0.056-1.483,0.924-4.48-1.124-4.698
			c-2.099,0.275-0.52,3.272-0.56,4.114c-1.346,29.397-1.275,68.362-1.124,101.622c-9.409,3.981-26.11,2.44-36.006,0
			c-0.543-21.743,2.981-44.853,1.69-65.796c-0.496-7.961,0.111-16.513,0.566-24.084c0.271-4.622,2.536-9.784,0-14.089
			c-2.561,1.948-1.523,5.871-1.691,8.81c-0.184,3.34-0.049,7.196-0.565,10.569c-0.239,1.59-1.302,3.147-1.684,4.705
			c-1.292,5.255-1.355,11.434-2.814,16.448c-5.065,0-8.423-1.783-11.253-4.116c5.383-22.974,7.895-48.932,27.002-57.568
			c4.93,3.09,15.664,6.271,19.125-0.582C80.342,124.966,83.715,134.167,86.762,149.674z"/>
		<path d="M103.07,271.267c1.643,4.655,2.926,9.86,1.69,14.681c-0.862,3.356-3.868,5.147-3.94,8.229
			c-0.558,0.133-1.027,0.341-1.443,0.607L98.572,293c3.965-3.838-1.355-13.374,2.248-15.271c1.516,1.356-0.152,6.028,2.25,6.461
			c0.949-10.393-3.621-15.015-11.254-16.448c-0.158-0.874-0.309-1.764-0.453-2.664l1.577-0.275
			C96.066,267.218,100.629,268.135,103.07,271.267z"/>
		<path d="M89.568,287.712c-0.934-0.94-1.93,3.04-5.064,1.758c-3.82-2.857-5.359-11.818-3.373-18.204
			c0.9-2.89,3.182-3.964,3.939-5.88c-2.033-28.646-2.6-53.105-3.374-79.887l1.716-0.117c1.753,26.79,1.141,56.037,4.473,81.178
			c-1.522,1.35-3.35,2.381-4.505,4.115c-0.566,5.271-2.337,15.89,3.382,16.447c1.251-2.207,0.66-6.353,1.682-8.811
			c3.102,2.132,3.158,6.687,3.373,10.576c0.201,3.482-1.667,8.377,1.691,9.986c2.68-1.958,2.528-8.328,2.25-12.926
			c-0.145-2.439-2.688-5.753,0-6.461c3.596,1.732,1.234,9.685,2.814,13.514l0.805,1.783c-3.117,2.024-2.576,7.387-6.994,6.438
			C87.894,300.255,90.07,294.292,89.568,287.712z"/>
		<path d="M75.508,46.877c-2.918,0.675-6.555,0.601-9.562,1.175c-0.15,3.481,0.049,6.603,1.126,8.811
			c2.352,1.324,4.528-0.108,7.312,0C74.902,53.932,77.008,50.018,75.508,46.877z M78.882,45.704
			c0.558,7.82-1.045,13.399-6.746,14.682c-1.382,11.925-0.63,26.065-4.14,35.775l-1.73-0.516c2.719-9.977,3.109-22.385,3.613-34.676
			c-5.391-1.024-6.477-6.545-7.312-12.333l0.063-1.99c2.791,0.125,5.701-0.101,8.939-0.941c0-1.575,0-3.14,0-4.705
			c-2.019-2.333-5.901,0.715-6.747-2.35c2.377-0.89,4.609-1.606,6.747,0c0.278-1.116,0.486-2.339,0.597-3.588l1.604,0.133
			c-0.15,2.074-0.087,4.064,0.614,5.805l1.323,0.657c-0.582,1.075-1.219,2.04-1.891,2.865C74.447,46.02,78.172,44.288,78.882,45.704
			z"/>
		<path d="M64.822,396.973c4.027,7.943,27.641,7.453,31.5,0.582c3.048-5.421-0.152-13.948-5.062-16.446
			c-0.399,2.131-0.217,4.871-1.125,6.462c-4.355-1.05,1.235-6.779-1.125-9.401l0.925-1.367c3.532,1.99,6.453,4.59,8.071,7.828
			c5.494,10.96-2.416,19.653-13.502,20.562c-6.428,0.525-16.604-1.05-19.682-4.114c-2.975-2.946-4.906-15.147-2.256-22.316h1.69
			c-0.433,4.195-1.245,6.977-1.126,9.4C63.227,390.019,63.689,394.741,64.822,396.973z"/>
		<path d="M60.883,311.797c0.302,21.46,1.284,43.662,2.248,64.023c3.534,1.015,6.533,1.133,9.722,0.032l0.599,1.725
			c-2.808,1.2-5.695,2.289-9.194,1.184h-1.69c0.119-2.083-2.633-1.158-2.25-3.524c-0.621-36.241-2.656-74.781-0.766-108.443
			l1.69,0.092C60.427,281.343,60.668,296.79,60.883,311.797z"/>
		<path d="M56.385,22.203c1.06-1.632,0.215-5.254,3.373-4.696c2,2.215,3.486,4.979,5.064,7.636c1.275-1.599,1.102-4.73,3.373-5.288
			c1.979,2.44,3.748,5.097,6.188,7.046c0.144,2.623-0.423,5.529-0.614,8.293l-1.604-0.133c0.48-5.014-0.51-10.477-4.537-11.092
			c-0.541,1.582-0.91,3.355-1.684,4.696c-3.619-1.314-3.865-6.145-6.754-8.227c-1.036,1.466-0.637,4.43-2.807,4.705
			c-2.274-0.958-2.536-4.014-4.506-5.288c-2.186,2.707-2.72,7.969-2.72,13.174l-1.737,0.008c-0.064-7.453-0.209-13.532,5.023-16.123
			C54.551,17.855,54.623,20.904,56.385,22.203z"/>
		<path d="M54.127,2.816c7.529-1.923,17.713-4.93,23.631-0.583c4.92,10.019,3.348,29.497-2.051,39.423l-1.323-0.657
			c3.462-9.869,6.388-26.066,2.251-37.008c-8.862-3.898-25.043-0.533-27.006,6.462c-1.49,0.009-3.213-0.217-3.938,0.591
			c-1.036,2.224-1.587,5.122-1.755,8.228L42.35,19.18c0.143-2.765,0.365-5.521,0.533-8.136c0.678-2.057,3.143-1.515,5.064-2.939
			C49.869,6.672,51.105,3.59,54.127,2.816z"/>
		<path d="M54.127,56.863c1.037-2.257,2.1-4.472,2.258-7.638c-2.607-1.781-6.349-2.38-10.694-2.348
			C44.646,54.615,48.713,59.253,54.127,56.863z M43.936,19.271c-0.382,7.07,1.188,15.265,3.445,19.378
			c0.071-1.932,0.056-3.814,0.041-5.612l1.737-0.008c0,4.405,0.382,8.761,0.47,11.492c4.586,0.875,8.646,1.924,13.001,2.124
			l-0.063,1.99c-1.382-0.075-2.705-0.083-3.375,0.59c-0.869,5.938-2.871,10.71-8.996,11.161h-1.69
			c-4.656-1.791-5.414-7.662-5.064-14.682c0.057-2.415,3.877-0.892,3.94-1.766c0.352-2.814-2.353-3.797-3.374-6.461
			c-1.962-5.08-2.009-11.734-1.657-18.296L43.936,19.271z"/>
		<path d="M39.502,372.297c1.324-39.248,0.621-80.119,0.566-121.59l1.715-0.034c0.893,42.054,0.23,85.158-0.023,125.148
			c2.871,1.456,7.781,4.514,11.243,1.766c2.187-39.424-2.233-86.217,1.124-124.532c2.793,1.49,7.521-0.442,9.57,0.591
			c-1.491,2.989-2.025,6.646-2.258,9.984c-0.07,1.083-0.142,2.165-0.198,3.256l-1.69-0.092c0.207-3.664,0.463-7.261,0.766-10.8
			c-1.308,0-2.624,0-3.932,0c-3.82,36.534,0.582,82.785-0.566,121.001c-0.031,1.074-0.98,2.34-1.125,3.522
			c-0.271,2.231-0.223,4.497-0.135,6.695h-0.958c-0.079-2.057-0.454-4.289-1.155-6.695c-7.01,0.724-13.231-2.049-13.502-6.454
			l-0.159-1.69C39.022,372.339,39.262,372.322,39.502,372.297z"/>
		<path d="M24.875,378.761c-5.678,3.089-12.703,12.541-7.312,19.968c4.777,1.607,9.834,4.955,15.759,5.288
			c11.778,0.666,20.751-5.131,20.279-16.805h0.958c0.182,4.664,0.551,9.019-1.556,12.108c-6.205,9.086-30.226,7.937-37.689,0.583
			c-4.897-4.821-0.302-14.955,3.94-19.387c4.434-4.622,11.077-7.287,19.53-8.145l0.159,1.69c-1.108,0.8-3.213,0.558-4.498,1.174
			c1.021,2.075,1.914,7.371,0.559,9.985c-2.623-1.765,0.303-9.318-3.938-9.401c-1.835,2.131,2.767,7.527-0.56,9.401
			c-2.496-1.115,0.199-7.645-2.814-8.228c-2.775,0.767,4.29,7.837-0.559,8.811C26.248,383.599,26.383,380.316,24.875,378.761z"/>
		<path d="M65.945,119.128c-4.106,2.082-10.07,0.1-13.5,0.583C55.389,122.26,64.605,124.657,65.945,119.128z M40.635,156.127
			c-0.455,7.571-1.062,16.124-0.566,24.084c1.291,20.943-2.233,44.053-1.69,65.796c9.896,2.44,26.597,3.981,36.006,0
			c-0.151-33.26-0.222-72.225,1.124-101.622c0.04-0.842-1.539-3.839,0.56-4.114c2.048,0.217,1.068,3.215,1.124,4.698
			c0.231,6.104,0.094,13.082-0.557,17.62c2.056,5.297,2.375,12.4,2.812,19.388c3.398,1.116,7.753,0.473,10.121-1.175
			c0.215-12.25-0.869-21.252-2.807-31.129c-3.047-15.507-6.42-24.708-18.008-29.371c-3.461,6.854-14.195,3.672-19.125,0.582
			c-19.107,8.636-21.619,34.594-27.002,57.568c2.83,2.333,6.188,4.116,11.253,4.116c1.459-5.014,1.522-11.193,2.814-16.448
			c0.382-1.557,1.444-3.114,1.684-4.705c0.517-3.373,0.382-7.229,0.565-10.569c0.168-2.938-0.869-6.861,1.691-8.81
			C43.171,146.344,40.906,151.505,40.635,156.127z M14.189,298.873c2.265-5.355-3.166-18.438,4.506-20.562
			c1.747,2.089,0.087,7.745,2.807,8.811c3.797-3.09,2.338-13.458,0.566-17.622c-1.596-1.264-4.227-1.465-5.629-2.94
			c5.868-25.589,7.017-56.111,12.375-82.234c-1.777,0.099-1.872-1.559-3.939-1.176c-4.657,26.858-8.213,54.855-11.809,82.828
			c-9.252,0.815-12.521,12.842-10.688,19.386c0.168-2.955-0.168-6.445,2.814-6.461c-0.502,4.588-1.857,13.166,1.683,15.273
			c-0.087-3.448-2.216-11.425,1.125-12.925C9.619,285.906,5.982,301.028,14.189,298.873z M17.562,282.424
			c-3.867,5.139,1.906,12.551-2.249,18.214c-2.073-0.192-3.364,0.266-4.498,0c-3.659-0.893-2.704-5.956-6.745-6.463
			c-1.182-2.49-1.238-6.154-3.94-7.054c-0.758-11.942,1.659-20.586,10.686-22.318c5.319-26.166,6.276-56.886,12.937-81.654
			c-0.104-2.43-2.967-1.989-3.373-4.113c5.82-25.441,8.627-54.037,31.5-61.675c1.491-5.112,2.926-9.659,2.248-15.272
			c-0.533-4.438-3.523-8.652-4.498-13.508c-1.849-9.218-0.869-18.387-1.124-28.196h1.69c0.43,10.966-0.59,19.261,1.125,27.606
			c0.973,4.754,4.34,8.445,5.064,12.924c0.869,5.389-1.107,10.917-2.258,17.039c3.445,1.157,7.625,0.333,10.695-0.592
			c-1.971-5.479-1.971-13.465-2.256-17.621c1.872-0.199,2-2.224,3.379-2.939c0.113-0.384,0.225-0.767,0.32-1.158l1.73,0.516
			c-0.806,2.24-1.834,4.239-3.174,5.929c-0.455,5.563,0.83,9.311,1.682,13.508c5.639,5.164,13.056,6.296,16.876,13.515
			c1.466,2.765,2.353,7.645,3.382,11.75c2.743,11.001,5.048,25.624,5.055,39.94c0.089,1.849-1.436,2.015-2.807,2.347
			c2.354,26.666,1.203,56.887,3.931,81.654l-1.577,0.275c-3.638-22.519-2.082-52.031-4.045-74.874
			c-0.143-1.658,1.062-5.063-1.124-5.879c-1.354-0.243-1.221,1.074-2.814,0.59c0.007,0.158,0.024,0.309,0.032,0.466l-1.716,0.117
			c-0.486-1.45-3.915,0.175-4.505-1.173c0-2.541,0-5.088,0-7.636c-0.941,21.935-0.926,47.967,0,69.901
			c-0.479,1.066-1.443,1.625-1.684,2.94c-2.91,40.689,1.971,82.593,1.127,122.766c4.545,0.767,9.312,2.249,13.3,4.505l-0.925,1.367
			c-3.486,1.048-2.935,6.77-3.382,9.401c-4.474,0.616-0.478-8.027,0.566-10.576c-6.259-0.649-2.608,8.711-5.622,9.984
			c-2.711-3.214,0.256-8.568,1.684-11.158c-3.223-0.758-5.974,0.549-8.805,1.757l-0.599-1.725c0.502-0.175,1.013-0.383,1.531-0.616
			c1.084-43.894-3.118-84.751-1.69-126.296c-8.422,2.414-21.517,0.899-30.934,0.59c0.006,0.383,0.016,0.758,0.023,1.142
			l-1.715,0.034c-0.08-2.658-4.068-1.235-4.498-3.523c1.147-24.343,3.852-45.303,2.248-71.077c-1.426,2.03-0.733,6.278-1.691,8.81
			c-1.873,0-3.746,0-5.621,0c-4.586,25.758-7.24,53.531-11.252,79.888c1.125,2.631,3.971,1.814,5.621,5.871
			c3.031,7.428,0.91,18.844-3.932,18.212C18.138,288.521,17.738,286.49,17.562,282.424z"/>
	</g>
	<path fill-rule="evenodd" clip-rule="evenodd" d="M57.506,38.064c-1.294,2.603-4.002,0.78-6.75,2.349
		C49.008,37.959,55.341,36.375,57.506,38.064z"/>
	<path fill-rule="evenodd" clip-rule="evenodd" d="M69.883,50.986c0.561,0,1.125,0,1.687,0c0.073,1.448,0.085,2.83-0.562,3.525
		C68.484,54.31,68.738,52.5,69.883,50.986z"/>
	<path fill-rule="evenodd" clip-rule="evenodd" d="M49.069,51.574c0.749,0,1.498,0,2.251,0c0.176,1.362-0.093,2.255-0.564,2.937
		C48.998,54.781,48.959,53.256,49.069,51.574z"/>
	<path fill-rule="evenodd" clip-rule="evenodd" d="M56.382,67.434c0.75,0,1.499,0,2.249,0c0.631,2.376-1.727,2.906-2.812,1.763
		C56.116,68.724,56.406,68.242,56.382,67.434z"/>
	<path fill-rule="evenodd" clip-rule="evenodd" d="M59.756,67.434c1.469-0.164,2.814-0.198,2.25,1.763
		C60.535,69.362,59.586,68.981,59.756,67.434z"/>
	<path fill-rule="evenodd" clip-rule="evenodd" d="M64.257,78.594c3.736,9.844-10.17,12.222-10.687,2.938
		C56.838,80.246,60.578,79.451,64.257,78.594z M56.382,82.706c0.446,4.824,8.228,2.434,5.624-1.762
		C60.84,82.272,57.824,81.667,56.382,82.706z"/>
	<path fill-rule="evenodd" clip-rule="evenodd" d="M61.444,100.917c0.144,3.051-3.526,1.397-4.501,0.587
		C58.275,100.509,60.129,100.481,61.444,100.917z"/>
</g>
</svg>
